  0
SECTION
  2
BLOCKS
  0
ENDSEC
  0
SECTION
  2
ENTITIES
  0
LINE
  8
0
 10
310.072
 20
250
 11
318.4
 21
250
  0
LINE
  8
0
 10
318.4
 20
250
 11
318.4
 21
245
  0
LINE
  8
0
 10
318.4
 20
245
 11
373.6
 21
245
  0
LINE
  8
0
 10
373.6
 20
245
 11
373.6
 21
250
  0
LINE
  8
0
 10
373.6
 20
250
 11
381.928
 21
250
  0
LINE
  8
0
 10
381.928
 20
250
 11
381.928
 21
245
  0
LINE
  8
0
 10
381.928
 20
245
 11
385.928
 21
245
  0
LINE
  8
0
 10
385.928
 20
245
 11
385.928
 21
250
  0
LINE
  8
0
 10
385.928
 20
250
 11
392
 21
250
  0
LINE
  8
0
 10
392
 20
250
 11
392
 21
301
  0
LINE
  8
0
 10
392
 20
301
 11
385.928
 21
301
  0
LINE
  8
0
 10
385.928
 20
301
 11
385.928
 21
306
  0
LINE
  8
0
 10
385.928
 20
306
 11
381.928
 21
306
  0
LINE
  8
0
 10
381.928
 20
306
 11
381.928
 21
301
  0
LINE
  8
0
 10
381.928
 20
301
 11
310.072
 21
301
  0
LINE
  8
0
 10
310.072
 20
301
 11
310.072
 21
306
  0
LINE
  8
0
 10
310.072
 20
306
 11
306.072
 21
306
  0
LINE
  8
0
 10
306.072
 20
306
 11
306.072
 21
301
  0
LINE
  8
0
 10
306.072
 20
301
 11
300
 21
301
  0
LINE
  8
0
 10
300
 20
301
 11
300
 21
250
  0
LINE
  8
0
 10
300
 20
250
 11
306.072
 21
250
  0
LINE
  8
0
 10
306.072
 20
250
 11
306.072
 21
245
  0
LINE
  8
0
 10
306.072
 20
245
 11
310.072
 21
245
  0
LINE
  8
0
 10
310.072
 20
245
 11
310.072
 21
250
  0
LINE
  8
0
 10
83
 20
268
 11
50
 21
268
  0
LINE
  8
0
 10
50
 20
268
 11
50
 21
264
  0
LINE
  8
0
 10
50
 20
264
 11
83
 21
264
  0
LINE
  8
0
 10
83
 20
264
 11
83
 21
268
  0
LINE
  8
0
 10
33
 20
268
 11
0
 21
268
  0
LINE
  8
0
 10
0
 20
268
 11
0
 21
264
  0
LINE
  8
0
 10
0
 20
264
 11
33
 21
264
  0
LINE
  8
0
 10
33
 20
264
 11
33
 21
268
  0
LINE
  8
0
 10
94
 20
256
 11
0
 21
256
  0
LINE
  8
0
 10
0
 20
256
 11
0
 21
252
  0
LINE
  8
0
 10
0
 20
252
 11
94
 21
252
  0
LINE
  8
0
 10
94
 20
252
 11
94
 21
256
  0
LINE
  8
0
 10
94
 20
244
 11
0
 21
244
  0
LINE
  8
0
 10
0
 20
244
 11
0
 21
240
  0
LINE
  8
0
 10
0
 20
240
 11
94
 21
240
  0
LINE
  8
0
 10
94
 20
240
 11
94
 21
244
  0
LINE
  8
0
 10
94
 20
232
 11
0
 21
232
  0
LINE
  8
0
 10
0
 20
232
 11
0
 21
228
  0
LINE
  8
0
 10
0
 20
228
 11
94
 21
228
  0
LINE
  8
0
 10
94
 20
228
 11
94
 21
232
  0
LINE
  8
0
 10
94
 20
220
 11
0
 21
220
  0
LINE
  8
0
 10
0
 20
220
 11
0
 21
216
  0
LINE
  8
0
 10
0
 20
216
 11
94
 21
216
  0
LINE
  8
0
 10
94
 20
216
 11
94
 21
220
  0
LINE
  8
0
 10
392
 20
212
 11
388
 21
212
  0
LINE
  8
0
 10
388
 20
212
 11
388
 21
214.36
  0
LINE
  8
0
 10
388
 20
214.36
 11
387
 21
214.36
  0
LINE
  8
0
 10
387
 20
214.36
 11
387
 21
214.08
  0
LINE
  8
0
 10
387
 20
214.08
 11
384.5
 21
214.08
  0
LINE
  8
0
 10
384.5
 20
214.08
 11
384.5
 21
216.08
  0
LINE
  8
0
 10
384.5
 20
216.08
 11
387
 21
216.08
  0
LINE
  8
0
 10
387
 20
216.08
 11
387
 21
215.8
  0
LINE
  8
0
 10
387
 20
215.8
 11
388
 21
215.8
  0
LINE
  8
0
 10
388
 20
215.8
 11
388
 21
217
  0
LINE
  8
0
 10
388
 20
217
 11
392
 21
217
  0
LINE
  8
0
 10
392
 20
217
 11
392
 21
219
  0
LINE
  8
0
 10
392
 20
219
 11
300
 21
219
  0
LINE
  8
0
 10
300
 20
219
 11
300
 21
217
  0
LINE
  8
0
 10
300
 20
217
 11
304
 21
217
  0
LINE
  8
0
 10
304
 20
217
 11
304
 21
215.64
  0
LINE
  8
0
 10
304
 20
215.64
 11
305
 21
215.64
  0
LINE
  8
0
 10
305
 20
215.64
 11
305
 21
215.92
  0
LINE
  8
0
 10
305
 20
215.92
 11
307.5
 21
215.92
  0
LINE
  8
0
 10
307.5
 20
215.92
 11
307.5
 21
213.92
  0
LINE
  8
0
 10
307.5
 20
213.92
 11
305
 21
213.92
  0
LINE
  8
0
 10
305
 20
213.92
 11
305
 21
214.2
  0
LINE
  8
0
 10
305
 20
214.2
 11
304
 21
214.2
  0
LINE
  8
0
 10
304
 20
214.2
 11
304
 21
212
  0
LINE
  8
0
 10
304
 20
212
 11
300
 21
212
  0
LINE
  8
0
 10
300
 20
212
 11
300
 21
200
  0
LINE
  8
0
 10
300
 20
200
 11
392
 21
200
  0
LINE
  8
0
 10
392
 20
200
 11
392
 21
212
  0
LINE
  8
0
 10
104
 20
190
 11
0
 21
190
  0
LINE
  8
0
 10
0
 20
190
 11
0
 21
160
  0
LINE
  8
0
 10
0
 20
160
 11
104
 21
160
  0
LINE
  8
0
 10
104
 20
160
 11
104
 21
190
  0
LINE
  8
0
 10
40.4164
 20
174.204
 11
40.2528
 21
174.239
  0
LINE
  8
0
 10
40.2528
 20
174.239
 11
40.1
 21
174.307
  0
LINE
  8
0
 10
40.1
 20
174.307
 11
39.9647
 21
174.405
  0
LINE
  8
0
 10
39.9647
 20
174.405
 11
39.8528
 21
174.53
  0
LINE
  8
0
 10
39.8528
 20
174.53
 11
39.7691
 21
174.675
  0
LINE
  8
0
 10
39.7691
 20
174.675
 11
39.7175
 21
174.834
  0
LINE
  8
0
 10
39.7175
 20
174.834
 11
39.7
 21
175
  0
LINE
  8
0
 10
39.7
 20
175
 11
39.7175
 21
175.166
  0
LINE
  8
0
 10
39.7175
 20
175.166
 11
39.7691
 21
175.325
  0
LINE
  8
0
 10
39.7691
 20
175.325
 11
39.8528
 21
175.47
  0
LINE
  8
0
 10
39.8528
 20
175.47
 11
39.9647
 21
175.595
  0
LINE
  8
0
 10
39.9647
 20
175.595
 11
40.1
 21
175.693
  0
LINE
  8
0
 10
40.1
 20
175.693
 11
40.2528
 21
175.761
  0
LINE
  8
0
 10
40.2528
 20
175.761
 11
40.4164
 21
175.796
  0
LINE
  8
0
 10
40.4164
 20
175.796
 11
40.5836
 21
175.796
  0
LINE
  8
0
 10
40.5836
 20
175.796
 11
40.7472
 21
175.761
  0
LINE
  8
0
 10
40.7472
 20
175.761
 11
40.9
 21
175.693
  0
LINE
  8
0
 10
40.9
 20
175.693
 11
41.0353
 21
175.595
  0
LINE
  8
0
 10
41.0353
 20
175.595
 11
41.1472
 21
175.47
  0
LINE
  8
0
 10
41.1472
 20
175.47
 11
41.2308
 21
175.325
  0
LINE
  8
0
 10
41.2308
 20
175.325
 11
41.2825
 21
175.166
  0
LINE
  8
0
 10
41.2825
 20
175.166
 11
41.3
 21
175
  0
LINE
  8
0
 10
41.3
 20
175
 11
41.2825
 21
174.834
  0
LINE
  8
0
 10
41.2825
 20
174.834
 11
41.2308
 21
174.675
  0
LINE
  8
0
 10
41.2308
 20
174.675
 11
41.1472
 21
174.53
  0
LINE
  8
0
 10
41.1472
 20
174.53
 11
41.0353
 21
174.405
  0
LINE
  8
0
 10
41.0353
 20
174.405
 11
40.9
 21
174.307
  0
LINE
  8
0
 10
40.9
 20
174.307
 11
40.7472
 21
174.239
  0
LINE
  8
0
 10
40.7472
 20
174.239
 11
40.5836
 21
174.204
  0
LINE
  8
0
 10
40.5836
 20
174.204
 11
40.4164
 21
174.204
  0
LINE
  8
0
 10
7.41637
 20
174.204
 11
7.25278
 21
174.239
  0
LINE
  8
0
 10
7.25278
 20
174.239
 11
7.09999
 21
174.307
  0
LINE
  8
0
 10
7.09999
 20
174.307
 11
6.96469
 21
174.405
  0
LINE
  8
0
 10
6.96469
 20
174.405
 11
6.85278
 21
174.53
  0
LINE
  8
0
 10
6.85278
 20
174.53
 11
6.76915
 21
174.675
  0
LINE
  8
0
 10
6.76915
 20
174.675
 11
6.71747
 21
174.834
  0
LINE
  8
0
 10
6.71747
 20
174.834
 11
6.7
 21
175
  0
LINE
  8
0
 10
6.7
 20
175
 11
6.71747
 21
175.166
  0
LINE
  8
0
 10
6.71747
 20
175.166
 11
6.76915
 21
175.325
  0
LINE
  8
0
 10
6.76915
 20
175.325
 11
6.85278
 21
175.47
  0
LINE
  8
0
 10
6.85278
 20
175.47
 11
6.96469
 21
175.595
  0
LINE
  8
0
 10
6.96469
 20
175.595
 11
7.09999
 21
175.693
  0
LINE
  8
0
 10
7.09999
 20
175.693
 11
7.25278
 21
175.761
  0
LINE
  8
0
 10
7.25278
 20
175.761
 11
7.41637
 21
175.796
  0
LINE
  8
0
 10
7.41637
 20
175.796
 11
7.58362
 21
175.796
  0
LINE
  8
0
 10
7.58362
 20
175.796
 11
7.74721
 21
175.761
  0
LINE
  8
0
 10
7.74721
 20
175.761
 11
7.89999
 21
175.693
  0
LINE
  8
0
 10
7.89999
 20
175.693
 11
8.03529
 21
175.595
  0
LINE
  8
0
 10
8.03529
 20
175.595
 11
8.1472
 21
175.47
  0
LINE
  8
0
 10
8.1472
 20
175.47
 11
8.23083
 21
175.325
  0
LINE
  8
0
 10
8.23083
 20
175.325
 11
8.28252
 21
175.166
  0
LINE
  8
0
 10
8.28252
 20
175.166
 11
8.29999
 21
175
  0
LINE
  8
0
 10
8.29999
 20
175
 11
8.28252
 21
174.834
  0
LINE
  8
0
 10
8.28252
 20
174.834
 11
8.23083
 21
174.675
  0
LINE
  8
0
 10
8.23083
 20
174.675
 11
8.1472
 21
174.53
  0
LINE
  8
0
 10
8.1472
 20
174.53
 11
8.03529
 21
174.405
  0
LINE
  8
0
 10
8.03529
 20
174.405
 11
7.89999
 21
174.307
  0
LINE
  8
0
 10
7.89999
 20
174.307
 11
7.74721
 21
174.239
  0
LINE
  8
0
 10
7.74721
 20
174.239
 11
7.58362
 21
174.204
  0
LINE
  8
0
 10
7.58362
 20
174.204
 11
7.41637
 21
174.204
  0
LINE
  8
0
 10
96.4164
 20
174.204
 11
96.2528
 21
174.239
  0
LINE
  8
0
 10
96.2528
 20
174.239
 11
96.1
 21
174.307
  0
LINE
  8
0
 10
96.1
 20
174.307
 11
95.9647
 21
174.405
  0
LINE
  8
0
 10
95.9647
 20
174.405
 11
95.8528
 21
174.53
  0
LINE
  8
0
 10
95.8528
 20
174.53
 11
95.7691
 21
174.675
  0
LINE
  8
0
 10
95.7691
 20
174.675
 11
95.7175
 21
174.834
  0
LINE
  8
0
 10
95.7175
 20
174.834
 11
95.7
 21
175
  0
LINE
  8
0
 10
95.7
 20
175
 11
95.7175
 21
175.166
  0
LINE
  8
0
 10
95.7175
 20
175.166
 11
95.7691
 21
175.325
  0
LINE
  8
0
 10
95.7691
 20
175.325
 11
95.8528
 21
175.47
  0
LINE
  8
0
 10
95.8528
 20
175.47
 11
95.9647
 21
175.595
  0
LINE
  8
0
 10
95.9647
 20
175.595
 11
96.1
 21
175.693
  0
LINE
  8
0
 10
96.1
 20
175.693
 11
96.2528
 21
175.761
  0
LINE
  8
0
 10
96.2528
 20
175.761
 11
96.4164
 21
175.796
  0
LINE
  8
0
 10
96.4164
 20
175.796
 11
96.5836
 21
175.796
  0
LINE
  8
0
 10
96.5836
 20
175.796
 11
96.7472
 21
175.761
  0
LINE
  8
0
 10
96.7472
 20
175.761
 11
96.9
 21
175.693
  0
LINE
  8
0
 10
96.9
 20
175.693
 11
97.0353
 21
175.595
  0
LINE
  8
0
 10
97.0353
 20
175.595
 11
97.1472
 21
175.47
  0
LINE
  8
0
 10
97.1472
 20
175.47
 11
97.2308
 21
175.325
  0
LINE
  8
0
 10
97.2308
 20
175.325
 11
97.2825
 21
175.166
  0
LINE
  8
0
 10
97.2825
 20
175.166
 11
97.3
 21
175
  0
LINE
  8
0
 10
97.3
 20
175
 11
97.2825
 21
174.834
  0
LINE
  8
0
 10
97.2825
 20
174.834
 11
97.2308
 21
174.675
  0
LINE
  8
0
 10
97.2308
 20
174.675
 11
97.1472
 21
174.53
  0
LINE
  8
0
 10
97.1472
 20
174.53
 11
97.0353
 21
174.405
  0
LINE
  8
0
 10
97.0353
 20
174.405
 11
96.9
 21
174.307
  0
LINE
  8
0
 10
96.9
 20
174.307
 11
96.7472
 21
174.239
  0
LINE
  8
0
 10
96.7472
 20
174.239
 11
96.5836
 21
174.204
  0
LINE
  8
0
 10
96.5836
 20
174.204
 11
96.4164
 21
174.204
  0
LINE
  8
0
 10
392
 20
162
 11
388
 21
162
  0
LINE
  8
0
 10
388
 20
162
 11
388
 21
164.36
  0
LINE
  8
0
 10
388
 20
164.36
 11
387
 21
164.36
  0
LINE
  8
0
 10
387
 20
164.36
 11
387
 21
164.08
  0
LINE
  8
0
 10
387
 20
164.08
 11
384.5
 21
164.08
  0
LINE
  8
0
 10
384.5
 20
164.08
 11
384.5
 21
166.08
  0
LINE
  8
0
 10
384.5
 20
166.08
 11
387
 21
166.08
  0
LINE
  8
0
 10
387
 20
166.08
 11
387
 21
165.8
  0
LINE
  8
0
 10
387
 20
165.8
 11
388
 21
165.8
  0
LINE
  8
0
 10
388
 20
165.8
 11
388
 21
167
  0
LINE
  8
0
 10
388
 20
167
 11
392
 21
167
  0
LINE
  8
0
 10
392
 20
167
 11
392
 21
177
  0
LINE
  8
0
 10
392
 20
177
 11
300
 21
177
  0
LINE
  8
0
 10
300
 20
177
 11
300
 21
167
  0
LINE
  8
0
 10
300
 20
167
 11
304
 21
167
  0
LINE
  8
0
 10
304
 20
167
 11
304
 21
165.64
  0
LINE
  8
0
 10
304
 20
165.64
 11
305
 21
165.64
  0
LINE
  8
0
 10
305
 20
165.64
 11
305
 21
165.92
  0
LINE
  8
0
 10
305
 20
165.92
 11
307.5
 21
165.92
  0
LINE
  8
0
 10
307.5
 20
165.92
 11
307.5
 21
163.92
  0
LINE
  8
0
 10
307.5
 20
163.92
 11
305
 21
163.92
  0
LINE
  8
0
 10
305
 20
163.92
 11
305
 21
164.2
  0
LINE
  8
0
 10
305
 20
164.2
 11
304
 21
164.2
  0
LINE
  8
0
 10
304
 20
164.2
 11
304
 21
162
  0
LINE
  8
0
 10
304
 20
162
 11
300
 21
162
  0
LINE
  8
0
 10
300
 20
162
 11
300
 21
150
  0
LINE
  8
0
 10
300
 20
150
 11
392
 21
150
  0
LINE
  8
0
 10
392
 20
150
 11
392
 21
162
  0
LINE
  8
0
 10
318.4
 20
157.5
 11
318.4
 21
171
  0
LINE
  8
0
 10
318.4
 20
171
 11
373.6
 21
171
  0
LINE
  8
0
 10
373.6
 20
171
 11
373.6
 21
157.5
  0
LINE
  8
0
 10
373.6
 20
157.5
 11
318.4
 21
157.5
  0
LINE
  8
0
 10
306.072
 20
156.5
 11
306.072
 21
161.5
  0
LINE
  8
0
 10
306.072
 20
161.5
 11
310.072
 21
161.5
  0
LINE
  8
0
 10
310.072
 20
161.5
 11
310.072
 21
156.5
  0
LINE
  8
0
 10
310.072
 20
156.5
 11
306.072
 21
156.5
  0
LINE
  8
0
 10
381.928
 20
156.5
 11
381.928
 21
161.5
  0
LINE
  8
0
 10
381.928
 20
161.5
 11
385.928
 21
161.5
  0
LINE
  8
0
 10
385.928
 20
161.5
 11
385.928
 21
156.5
  0
LINE
  8
0
 10
385.928
 20
156.5
 11
381.928
 21
156.5
  0
LINE
  8
0
 10
104
 20
130
 11
0
 21
130
  0
LINE
  8
0
 10
0
 20
130
 11
0
 21
100
  0
LINE
  8
0
 10
0
 20
100
 11
104
 21
100
  0
LINE
  8
0
 10
104
 20
100
 11
104
 21
130
  0
LINE
  8
0
 10
96.4164
 20
114.204
 11
96.2528
 21
114.239
  0
LINE
  8
0
 10
96.2528
 20
114.239
 11
96.1
 21
114.307
  0
LINE
  8
0
 10
96.1
 20
114.307
 11
95.9647
 21
114.405
  0
LINE
  8
0
 10
95.9647
 20
114.405
 11
95.8528
 21
114.53
  0
LINE
  8
0
 10
95.8528
 20
114.53
 11
95.7691
 21
114.675
  0
LINE
  8
0
 10
95.7691
 20
114.675
 11
95.7175
 21
114.834
  0
LINE
  8
0
 10
95.7175
 20
114.834
 11
95.7
 21
115
  0
LINE
  8
0
 10
95.7
 20
115
 11
95.7175
 21
115.166
  0
LINE
  8
0
 10
95.7175
 20
115.166
 11
95.7691
 21
115.325
  0
LINE
  8
0
 10
95.7691
 20
115.325
 11
95.8528
 21
115.47
  0
LINE
  8
0
 10
95.8528
 20
115.47
 11
95.9647
 21
115.595
  0
LINE
  8
0
 10
95.9647
 20
115.595
 11
96.1
 21
115.693
  0
LINE
  8
0
 10
96.1
 20
115.693
 11
96.2528
 21
115.761
  0
LINE
  8
0
 10
96.2528
 20
115.761
 11
96.4164
 21
115.796
  0
LINE
  8
0
 10
96.4164
 20
115.796
 11
96.5836
 21
115.796
  0
LINE
  8
0
 10
96.5836
 20
115.796
 11
96.7472
 21
115.761
  0
LINE
  8
0
 10
96.7472
 20
115.761
 11
96.9
 21
115.693
  0
LINE
  8
0
 10
96.9
 20
115.693
 11
97.0353
 21
115.595
  0
LINE
  8
0
 10
97.0353
 20
115.595
 11
97.1472
 21
115.47
  0
LINE
  8
0
 10
97.1472
 20
115.47
 11
97.2308
 21
115.325
  0
LINE
  8
0
 10
97.2308
 20
115.325
 11
97.2825
 21
115.166
  0
LINE
  8
0
 10
97.2825
 20
115.166
 11
97.3
 21
115
  0
LINE
  8
0
 10
97.3
 20
115
 11
97.2825
 21
114.834
  0
LINE
  8
0
 10
97.2825
 20
114.834
 11
97.2308
 21
114.675
  0
LINE
  8
0
 10
97.2308
 20
114.675
 11
97.1472
 21
114.53
  0
LINE
  8
0
 10
97.1472
 20
114.53
 11
97.0353
 21
114.405
  0
LINE
  8
0
 10
97.0353
 20
114.405
 11
96.9
 21
114.307
  0
LINE
  8
0
 10
96.9
 20
114.307
 11
96.7472
 21
114.239
  0
LINE
  8
0
 10
96.7472
 20
114.239
 11
96.5836
 21
114.204
  0
LINE
  8
0
 10
96.5836
 20
114.204
 11
96.4164
 21
114.204
  0
LINE
  8
0
 10
7.41637
 20
114.204
 11
7.25278
 21
114.239
  0
LINE
  8
0
 10
7.25278
 20
114.239
 11
7.09999
 21
114.307
  0
LINE
  8
0
 10
7.09999
 20
114.307
 11
6.96469
 21
114.405
  0
LINE
  8
0
 10
6.96469
 20
114.405
 11
6.85278
 21
114.53
  0
LINE
  8
0
 10
6.85278
 20
114.53
 11
6.76915
 21
114.675
  0
LINE
  8
0
 10
6.76915
 20
114.675
 11
6.71747
 21
114.834
  0
LINE
  8
0
 10
6.71747
 20
114.834
 11
6.7
 21
115
  0
LINE
  8
0
 10
6.7
 20
115
 11
6.71747
 21
115.166
  0
LINE
  8
0
 10
6.71747
 20
115.166
 11
6.76915
 21
115.325
  0
LINE
  8
0
 10
6.76915
 20
115.325
 11
6.85278
 21
115.47
  0
LINE
  8
0
 10
6.85278
 20
115.47
 11
6.96469
 21
115.595
  0
LINE
  8
0
 10
6.96469
 20
115.595
 11
7.09999
 21
115.693
  0
LINE
  8
0
 10
7.09999
 20
115.693
 11
7.25278
 21
115.761
  0
LINE
  8
0
 10
7.25278
 20
115.761
 11
7.41637
 21
115.796
  0
LINE
  8
0
 10
7.41637
 20
115.796
 11
7.58362
 21
115.796
  0
LINE
  8
0
 10
7.58362
 20
115.796
 11
7.74721
 21
115.761
  0
LINE
  8
0
 10
7.74721
 20
115.761
 11
7.89999
 21
115.693
  0
LINE
  8
0
 10
7.89999
 20
115.693
 11
8.03529
 21
115.595
  0
LINE
  8
0
 10
8.03529
 20
115.595
 11
8.1472
 21
115.47
  0
LINE
  8
0
 10
8.1472
 20
115.47
 11
8.23083
 21
115.325
  0
LINE
  8
0
 10
8.23083
 20
115.325
 11
8.28252
 21
115.166
  0
LINE
  8
0
 10
8.28252
 20
115.166
 11
8.29999
 21
115
  0
LINE
  8
0
 10
8.29999
 20
115
 11
8.28252
 21
114.834
  0
LINE
  8
0
 10
8.28252
 20
114.834
 11
8.23083
 21
114.675
  0
LINE
  8
0
 10
8.23083
 20
114.675
 11
8.1472
 21
114.53
  0
LINE
  8
0
 10
8.1472
 20
114.53
 11
8.03529
 21
114.405
  0
LINE
  8
0
 10
8.03529
 20
114.405
 11
7.89999
 21
114.307
  0
LINE
  8
0
 10
7.89999
 20
114.307
 11
7.74721
 21
114.239
  0
LINE
  8
0
 10
7.74721
 20
114.239
 11
7.58362
 21
114.204
  0
LINE
  8
0
 10
7.58362
 20
114.204
 11
7.41637
 21
114.204
  0
LINE
  8
0
 10
40.4164
 20
114.204
 11
40.2528
 21
114.239
  0
LINE
  8
0
 10
40.2528
 20
114.239
 11
40.1
 21
114.307
  0
LINE
  8
0
 10
40.1
 20
114.307
 11
39.9647
 21
114.405
  0
LINE
  8
0
 10
39.9647
 20
114.405
 11
39.8528
 21
114.53
  0
LINE
  8
0
 10
39.8528
 20
114.53
 11
39.7691
 21
114.675
  0
LINE
  8
0
 10
39.7691
 20
114.675
 11
39.7175
 21
114.834
  0
LINE
  8
0
 10
39.7175
 20
114.834
 11
39.7
 21
115
  0
LINE
  8
0
 10
39.7
 20
115
 11
39.7175
 21
115.166
  0
LINE
  8
0
 10
39.7175
 20
115.166
 11
39.7691
 21
115.325
  0
LINE
  8
0
 10
39.7691
 20
115.325
 11
39.8528
 21
115.47
  0
LINE
  8
0
 10
39.8528
 20
115.47
 11
39.9647
 21
115.595
  0
LINE
  8
0
 10
39.9647
 20
115.595
 11
40.1
 21
115.693
  0
LINE
  8
0
 10
40.1
 20
115.693
 11
40.2528
 21
115.761
  0
LINE
  8
0
 10
40.2528
 20
115.761
 11
40.4164
 21
115.796
  0
LINE
  8
0
 10
40.4164
 20
115.796
 11
40.5836
 21
115.796
  0
LINE
  8
0
 10
40.5836
 20
115.796
 11
40.7472
 21
115.761
  0
LINE
  8
0
 10
40.7472
 20
115.761
 11
40.9
 21
115.693
  0
LINE
  8
0
 10
40.9
 20
115.693
 11
41.0353
 21
115.595
  0
LINE
  8
0
 10
41.0353
 20
115.595
 11
41.1472
 21
115.47
  0
LINE
  8
0
 10
41.1472
 20
115.47
 11
41.2308
 21
115.325
  0
LINE
  8
0
 10
41.2308
 20
115.325
 11
41.2825
 21
115.166
  0
LINE
  8
0
 10
41.2825
 20
115.166
 11
41.3
 21
115
  0
LINE
  8
0
 10
41.3
 20
115
 11
41.2825
 21
114.834
  0
LINE
  8
0
 10
41.2825
 20
114.834
 11
41.2308
 21
114.675
  0
LINE
  8
0
 10
41.2308
 20
114.675
 11
41.1472
 21
114.53
  0
LINE
  8
0
 10
41.1472
 20
114.53
 11
41.0353
 21
114.405
  0
LINE
  8
0
 10
41.0353
 20
114.405
 11
40.9
 21
114.307
  0
LINE
  8
0
 10
40.9
 20
114.307
 11
40.7472
 21
114.239
  0
LINE
  8
0
 10
40.7472
 20
114.239
 11
40.5836
 21
114.204
  0
LINE
  8
0
 10
40.5836
 20
114.204
 11
40.4164
 21
114.204
  0
LINE
  8
0
 10
318.4
 20
110
 11
373.6
 21
110
  0
LINE
  8
0
 10
373.6
 20
110
 11
373.6
 21
100
  0
LINE
  8
0
 10
373.6
 20
100
 11
392
 21
100
  0
LINE
  8
0
 10
392
 20
100
 11
392
 21
112
  0
LINE
  8
0
 10
392
 20
112
 11
388
 21
112
  0
LINE
  8
0
 10
388
 20
112
 11
388
 21
114.36
  0
LINE
  8
0
 10
388
 20
114.36
 11
387
 21
114.36
  0
LINE
  8
0
 10
387
 20
114.36
 11
387
 21
114.08
  0
LINE
  8
0
 10
387
 20
114.08
 11
384.5
 21
114.08
  0
LINE
  8
0
 10
384.5
 20
114.08
 11
384.5
 21
116.08
  0
LINE
  8
0
 10
384.5
 20
116.08
 11
387
 21
116.08
  0
LINE
  8
0
 10
387
 20
116.08
 11
387
 21
115.8
  0
LINE
  8
0
 10
387
 20
115.8
 11
388
 21
115.8
  0
LINE
  8
0
 10
388
 20
115.8
 11
388
 21
117
  0
LINE
  8
0
 10
388
 20
117
 11
392
 21
117
  0
LINE
  8
0
 10
392
 20
117
 11
392
 21
127
  0
LINE
  8
0
 10
392
 20
127
 11
300
 21
127
  0
LINE
  8
0
 10
300
 20
127
 11
300
 21
117
  0
LINE
  8
0
 10
300
 20
117
 11
304
 21
117
  0
LINE
  8
0
 10
304
 20
117
 11
304
 21
115.64
  0
LINE
  8
0
 10
304
 20
115.64
 11
305
 21
115.64
  0
LINE
  8
0
 10
305
 20
115.64
 11
305
 21
115.92
  0
LINE
  8
0
 10
305
 20
115.92
 11
307.5
 21
115.92
  0
LINE
  8
0
 10
307.5
 20
115.92
 11
307.5
 21
113.92
  0
LINE
  8
0
 10
307.5
 20
113.92
 11
305
 21
113.92
  0
LINE
  8
0
 10
305
 20
113.92
 11
305
 21
114.2
  0
LINE
  8
0
 10
305
 20
114.2
 11
304
 21
114.2
  0
LINE
  8
0
 10
304
 20
114.2
 11
304
 21
112
  0
LINE
  8
0
 10
304
 20
112
 11
300
 21
112
  0
LINE
  8
0
 10
300
 20
112
 11
300
 21
100
  0
LINE
  8
0
 10
300
 20
100
 11
318.4
 21
100
  0
LINE
  8
0
 10
318.4
 20
100
 11
318.4
 21
110
  0
LINE
  8
0
 10
318.4
 20
119
 11
318.4
 21
122
  0
LINE
  8
0
 10
318.4
 20
122
 11
373.6
 21
122
  0
LINE
  8
0
 10
373.6
 20
122
 11
373.6
 21
119
  0
LINE
  8
0
 10
373.6
 20
119
 11
318.4
 21
119
  0
LINE
  8
0
 10
381.928
 20
106.5
 11
381.928
 21
111.5
  0
LINE
  8
0
 10
381.928
 20
111.5
 11
385.928
 21
111.5
  0
LINE
  8
0
 10
385.928
 20
111.5
 11
385.928
 21
106.5
  0
LINE
  8
0
 10
385.928
 20
106.5
 11
381.928
 21
106.5
  0
LINE
  8
0
 10
306.072
 20
106.5
 11
306.072
 21
111.5
  0
LINE
  8
0
 10
306.072
 20
111.5
 11
310.072
 21
111.5
  0
LINE
  8
0
 10
310.072
 20
111.5
 11
310.072
 21
106.5
  0
LINE
  8
0
 10
310.072
 20
106.5
 11
306.072
 21
106.5
  0
LINE
  8
0
 10
392
 20
75.5
 11
300
 21
75.5
  0
LINE
  8
0
 10
300
 20
75.5
 11
300
 21
50
  0
LINE
  8
0
 10
300
 20
50
 11
392
 21
50
  0
LINE
  8
0
 10
392
 20
50
 11
392
 21
75.5
  0
LINE
  8
0
 10
335.582
 20
53.6719
 11
334.764
 21
53.8458
  0
LINE
  8
0
 10
334.764
 20
53.8458
 11
334
 21
54.1859
  0
LINE
  8
0
 10
334
 20
54.1859
 11
333.323
 21
54.6774
  0
LINE
  8
0
 10
333.323
 20
54.6774
 11
332.764
 21
55.2989
  0
LINE
  8
0
 10
332.764
 20
55.2989
 11
332.346
 21
56.023
  0
LINE
  8
0
 10
332.346
 20
56.023
 11
332.087
 21
56.8183
  0
LINE
  8
0
 10
332.087
 20
56.8183
 11
332
 21
57.65
  0
LINE
  8
0
 10
332
 20
57.65
 11
332.087
 21
58.4816
  0
LINE
  8
0
 10
332.087
 20
58.4816
 11
332.346
 21
59.2769
  0
LINE
  8
0
 10
332.346
 20
59.2769
 11
332.764
 21
60.0011
  0
LINE
  8
0
 10
332.764
 20
60.0011
 11
333.323
 21
60.6226
  0
LINE
  8
0
 10
333.323
 20
60.6226
 11
334
 21
61.1141
  0
LINE
  8
0
 10
334
 20
61.1141
 11
334.764
 21
61.4542
  0
LINE
  8
0
 10
334.764
 20
61.4542
 11
335.582
 21
61.6281
  0
LINE
  8
0
 10
335.582
 20
61.6281
 11
336.418
 21
61.6281
  0
LINE
  8
0
 10
336.418
 20
61.6281
 11
337.236
 21
61.4542
  0
LINE
  8
0
 10
337.236
 20
61.4542
 11
338
 21
61.1141
  0
LINE
  8
0
 10
338
 20
61.1141
 11
338.677
 21
60.6226
  0
LINE
  8
0
 10
338.677
 20
60.6226
 11
339.236
 21
60.0011
  0
LINE
  8
0
 10
339.236
 20
60.0011
 11
339.654
 21
59.2769
  0
LINE
  8
0
 10
339.654
 20
59.2769
 11
339.913
 21
58.4816
  0
LINE
  8
0
 10
339.913
 20
58.4816
 11
340
 21
57.65
  0
LINE
  8
0
 10
340
 20
57.65
 11
339.913
 21
56.8183
  0
LINE
  8
0
 10
339.913
 20
56.8183
 11
339.654
 21
56.023
  0
LINE
  8
0
 10
339.654
 20
56.023
 11
339.236
 21
55.2989
  0
LINE
  8
0
 10
339.236
 20
55.2989
 11
338.677
 21
54.6774
  0
LINE
  8
0
 10
338.677
 20
54.6774
 11
338
 21
54.1859
  0
LINE
  8
0
 10
338
 20
54.1859
 11
337.236
 21
53.8458
  0
LINE
  8
0
 10
337.236
 20
53.8458
 11
336.418
 21
53.6719
  0
LINE
  8
0
 10
336.418
 20
53.6719
 11
335.582
 21
53.6719
  0
LINE
  8
0
 10
365.582
 20
53.6719
 11
364.764
 21
53.8458
  0
LINE
  8
0
 10
364.764
 20
53.8458
 11
364
 21
54.1859
  0
LINE
  8
0
 10
364
 20
54.1859
 11
363.323
 21
54.6774
  0
LINE
  8
0
 10
363.323
 20
54.6774
 11
362.764
 21
55.2989
  0
LINE
  8
0
 10
362.764
 20
55.2989
 11
362.346
 21
56.023
  0
LINE
  8
0
 10
362.346
 20
56.023
 11
362.087
 21
56.8183
  0
LINE
  8
0
 10
362.087
 20
56.8183
 11
362
 21
57.65
  0
LINE
  8
0
 10
362
 20
57.65
 11
362.087
 21
58.4816
  0
LINE
  8
0
 10
362.087
 20
58.4816
 11
362.346
 21
59.2769
  0
LINE
  8
0
 10
362.346
 20
59.2769
 11
362.764
 21
60.0011
  0
LINE
  8
0
 10
362.764
 20
60.0011
 11
363.323
 21
60.6226
  0
LINE
  8
0
 10
363.323
 20
60.6226
 11
364
 21
61.1141
  0
LINE
  8
0
 10
364
 20
61.1141
 11
364.764
 21
61.4542
  0
LINE
  8
0
 10
364.764
 20
61.4542
 11
365.582
 21
61.6281
  0
LINE
  8
0
 10
365.582
 20
61.6281
 11
366.418
 21
61.6281
  0
LINE
  8
0
 10
366.418
 20
61.6281
 11
367.236
 21
61.4542
  0
LINE
  8
0
 10
367.236
 20
61.4542
 11
368
 21
61.1141
  0
LINE
  8
0
 10
368
 20
61.1141
 11
368.677
 21
60.6226
  0
LINE
  8
0
 10
368.677
 20
60.6226
 11
369.236
 21
60.0011
  0
LINE
  8
0
 10
369.236
 20
60.0011
 11
369.654
 21
59.2769
  0
LINE
  8
0
 10
369.654
 20
59.2769
 11
369.913
 21
58.4816
  0
LINE
  8
0
 10
369.913
 20
58.4816
 11
370
 21
57.65
  0
LINE
  8
0
 10
370
 20
57.65
 11
369.913
 21
56.8183
  0
LINE
  8
0
 10
369.913
 20
56.8183
 11
369.654
 21
56.023
  0
LINE
  8
0
 10
369.654
 20
56.023
 11
369.236
 21
55.2989
  0
LINE
  8
0
 10
369.236
 20
55.2989
 11
368.677
 21
54.6774
  0
LINE
  8
0
 10
368.677
 20
54.6774
 11
368
 21
54.1859
  0
LINE
  8
0
 10
368
 20
54.1859
 11
367.236
 21
53.8458
  0
LINE
  8
0
 10
367.236
 20
53.8458
 11
366.418
 21
53.6719
  0
LINE
  8
0
 10
366.418
 20
53.6719
 11
365.582
 21
53.6719
  0
LINE
  8
0
 10
323.634
 20
54.1692
 11
322.918
 21
54.3213
  0
LINE
  8
0
 10
322.918
 20
54.3213
 11
322.25
 21
54.6189
  0
LINE
  8
0
 10
322.25
 20
54.6189
 11
321.658
 21
55.049
  0
LINE
  8
0
 10
321.658
 20
55.049
 11
321.168
 21
55.5927
  0
LINE
  8
0
 10
321.168
 20
55.5927
 11
320.803
 21
56.2264
  0
LINE
  8
0
 10
320.803
 20
56.2264
 11
320.576
 21
56.9223
  0
LINE
  8
0
 10
320.576
 20
56.9223
 11
320.5
 21
57.65
  0
LINE
  8
0
 10
320.5
 20
57.65
 11
320.576
 21
58.3777
  0
LINE
  8
0
 10
320.576
 20
58.3777
 11
320.803
 21
59.0736
  0
LINE
  8
0
 10
320.803
 20
59.0736
 11
321.168
 21
59.7072
  0
LINE
  8
0
 10
321.168
 20
59.7072
 11
321.658
 21
60.251
  0
LINE
  8
0
 10
321.658
 20
60.251
 11
322.25
 21
60.6811
  0
LINE
  8
0
 10
322.25
 20
60.6811
 11
322.918
 21
60.9787
  0
LINE
  8
0
 10
322.918
 20
60.9787
 11
323.634
 21
61.1308
  0
LINE
  8
0
 10
323.634
 20
61.1308
 11
324.366
 21
61.1308
  0
LINE
  8
0
 10
324.366
 20
61.1308
 11
325.082
 21
60.9787
  0
LINE
  8
0
 10
325.082
 20
60.9787
 11
325.75
 21
60.6811
  0
LINE
  8
0
 10
325.75
 20
60.6811
 11
326.342
 21
60.251
  0
LINE
  8
0
 10
326.342
 20
60.251
 11
326.832
 21
59.7072
  0
LINE
  8
0
 10
326.832
 20
59.7072
 11
327.197
 21
59.0736
  0
LINE
  8
0
 10
327.197
 20
59.0736
 11
327.424
 21
58.3777
  0
LINE
  8
0
 10
327.424
 20
58.3777
 11
327.5
 21
57.65
  0
LINE
  8
0
 10
327.5
 20
57.65
 11
327.424
 21
56.9223
  0
LINE
  8
0
 10
327.424
 20
56.9223
 11
327.197
 21
56.2264
  0
LINE
  8
0
 10
327.197
 20
56.2264
 11
326.832
 21
55.5927
  0
LINE
  8
0
 10
326.832
 20
55.5927
 11
326.342
 21
55.049
  0
LINE
  8
0
 10
326.342
 20
55.049
 11
325.75
 21
54.6189
  0
LINE
  8
0
 10
325.75
 20
54.6189
 11
325.082
 21
54.3213
  0
LINE
  8
0
 10
325.082
 20
54.3213
 11
324.366
 21
54.1692
  0
LINE
  8
0
 10
324.366
 20
54.1692
 11
323.634
 21
54.1692
  0
LINE
  8
0
 10
346
 20
54.59
 11
346
 21
60.59
  0
LINE
  8
0
 10
346
 20
60.59
 11
356
 21
60.59
  0
LINE
  8
0
 10
356
 20
60.59
 11
356
 21
54.59
  0
LINE
  8
0
 10
356
 20
54.59
 11
346
 21
54.59
  0
LINE
  8
0
 10
84
 20
58
 11
0
 21
58
  0
LINE
  8
0
 10
0
 20
58
 11
0
 21
0
  0
LINE
  8
0
 10
0
 20
0
 11
84
 21
0
  0
LINE
  8
0
 10
84
 20
0
 11
84
 21
58
  0
LINE
  8
0
 10
34.0664
 20
4.74414
 11
33.6738
 21
4.84668
  0
LINE
  8
0
 10
33.6738
 20
4.84668
 11
33.2803
 21
4.94922
  0
LINE
  8
0
 10
33.2803
 20
4.94922
 11
32.8877
 21
5.05273
  0
LINE
  8
0
 10
32.8877
 20
5.05273
 11
31.1504
 21
5.61816
  0
LINE
  8
0
 10
31.1504
 20
5.61816
 11
29.5312
 21
6.40039
  0
LINE
  8
0
 10
29.5312
 20
6.40039
 11
27.9189
 21
7.46094
  0
LINE
  8
0
 10
27.9189
 20
7.46094
 11
26.2012
 21
8.86621
  0
LINE
  8
0
 10
26.2012
 20
8.86621
 11
24.9688
 21
10.0557
  0
LINE
  8
0
 10
24.9688
 20
10.0557
 11
23.8486
 21
11.3506
  0
LINE
  8
0
 10
23.8486
 20
11.3506
 11
22.833
 21
12.7598
  0
LINE
  8
0
 10
22.833
 20
12.7598
 11
21.917
 21
14.29
  0
LINE
  8
0
 10
21.917
 20
14.29
 11
20.9521
 21
16.0596
  0
LINE
  8
0
 10
20.9521
 20
16.0596
 11
20.4443
 21
15.5713
  0
LINE
  8
0
 10
20.4443
 20
15.5713
 11
20.1904
 21
15.3262
  0
LINE
  8
0
 10
20.1904
 20
15.3262
 11
19.9365
 21
15.082
  0
LINE
  8
0
 10
19.9365
 20
15.082
 11
18.6162
 21
13.9131
  0
LINE
  8
0
 10
18.6162
 20
13.9131
 11
17.457
 21
13.1406
  0
LINE
  8
0
 10
17.457
 20
13.1406
 11
16.3311
 21
12.6982
  0
LINE
  8
0
 10
16.3311
 20
12.6982
 11
15.1084
 21
12.5156
  0
LINE
  8
0
 10
15.1084
 20
12.5156
 11
14.374
 21
12.4854
  0
LINE
  8
0
 10
14.374
 20
12.4854
 11
13.875
 21
12.5254
  0
LINE
  8
0
 10
13.875
 20
12.5254
 11
13.4043
 21
12.6787
  0
LINE
  8
0
 10
13.4043
 20
12.6787
 11
12.7539
 21
12.9873
  0
LINE
  8
0
 10
12.7539
 20
12.9873
 11
10.7871
 21
14.4053
  0
LINE
  8
0
 10
10.7871
 20
14.4053
 11
8.84082
 21
16.6094
  0
LINE
  8
0
 10
8.84082
 20
16.6094
 11
7.09863
 21
19.3525
  0
LINE
  8
0
 10
7.09863
 20
19.3525
 11
5.74219
 21
22.3906
  0
LINE
  8
0
 10
5.74219
 20
22.3906
 11
4.98047
 21
25.1074
  0
LINE
  8
0
 10
4.98047
 20
25.1074
 11
4.6416
 21
27.6729
  0
LINE
  8
0
 10
4.6416
 20
27.6729
 11
4.73438
 21
29.9033
  0
LINE
  8
0
 10
4.73438
 20
29.9033
 11
5.26953
 21
31.6172
  0
LINE
  8
0
 10
5.26953
 20
31.6172
 11
5.49414
 21
31.9658
  0
LINE
  8
0
 10
5.49414
 20
31.9658
 11
5.78906
 21
32.3135
  0
LINE
  8
0
 10
5.78906
 20
32.3135
 11
6.1582
 21
32.6631
  0
LINE
  8
0
 10
6.1582
 20
32.6631
 11
6.60352
 21
33.0186
  0
LINE
  8
0
 10
6.60352
 20
33.0186
 11
7.36523
 21
33.625
  0
LINE
  8
0
 10
7.36523
 20
33.625
 11
7.69141
 21
34.1494
  0
LINE
  8
0
 10
7.69141
 20
34.1494
 11
7.64648
 21
34.877
  0
LINE
  8
0
 10
7.64648
 20
34.877
 11
7.29492
 21
36.0928
  0
LINE
  8
0
 10
7.29492
 20
36.0928
 11
6.79199
 21
37.8623
  0
LINE
  8
0
 10
6.79199
 20
37.8623
 11
6.47949
 21
39.416
  0
LINE
  8
0
 10
6.47949
 20
39.416
 11
6.31934
 21
40.9961
  0
LINE
  8
0
 10
6.31934
 20
40.9961
 11
6.27637
 21
42.8457
  0
LINE
  8
0
 10
6.27637
 20
42.8457
 11
6.32422
 21
44.79
  0
LINE
  8
0
 10
6.32422
 20
44.79
 11
6.48242
 21
46.2969
  0
LINE
  8
0
 10
6.48242
 20
46.2969
 11
6.77637
 21
47.5273
  0
LINE
  8
0
 10
6.77637
 20
47.5273
 11
7.23438
 21
48.6445
  0
LINE
  8
0
 10
7.23438
 20
48.6445
 11
7.66602
 21
49.4092
  0
LINE
  8
0
 10
7.66602
 20
49.4092
 11
8.14941
 21
49.9824
  0
LINE
  8
0
 10
8.14941
 20
49.9824
 11
8.78027
 21
50.4561
  0
LINE
  8
0
 10
8.78027
 20
50.4561
 11
9.6582
 21
50.9219
  0
LINE
  8
0
 10
9.6582
 20
50.9219
 11
11.9922
 21
51.7441
  0
LINE
  8
0
 10
11.9922
 20
51.7441
 11
14.7188
 21
52.1973
  0
LINE
  8
0
 10
14.7188
 20
52.1973
 11
17.748
 21
52.2744
  0
LINE
  8
0
 10
17.748
 20
52.2744
 11
20.9893
 21
51.9668
  0
LINE
  8
0
 10
20.9893
 20
51.9668
 11
22.6025
 21
51.665
  0
LINE
  8
0
 10
22.6025
 20
51.665
 11
23.9824
 21
51.2373
  0
LINE
  8
0
 10
23.9824
 20
51.2373
 11
25.4502
 21
50.5557
  0
LINE
  8
0
 10
25.4502
 20
50.5557
 11
27.3281
 21
49.4951
  0
LINE
  8
0
 10
27.3281
 20
49.4951
 11
28.1641
 21
49.0186
  0
LINE
  8
0
 10
28.1641
 20
49.0186
 11
28.8242
 21
48.6777
  0
LINE
  8
0
 10
28.8242
 20
48.6777
 11
29.3096
 21
48.4736
  0
LINE
  8
0
 10
29.3096
 20
48.4736
 11
29.6182
 21
48.4053
  0
LINE
  8
0
 10
29.6182
 20
48.4053
 11
29.8848
 21
48.4541
  0
LINE
  8
0
 10
29.8848
 20
48.4541
 11
30.2822
 21
48.5889
  0
LINE
  8
0
 10
30.2822
 20
48.5889
 11
30.7588
 21
48.7881
  0
LINE
  8
0
 10
30.7588
 20
48.7881
 11
31.2617
 21
49.0322
  0
LINE
  8
0
 10
31.2617
 20
49.0322
 11
32.4053
 21
49.5811
  0
LINE
  8
0
 10
32.4053
 20
49.5811
 11
33.3809
 21
49.9111
  0
LINE
  8
0
 10
33.3809
 20
49.9111
 11
34.3926
 21
50.0732
  0
LINE
  8
0
 10
34.3926
 20
50.0732
 11
35.6406
 21
50.1152
  0
LINE
  8
0
 10
35.6406
 20
50.1152
 11
36.8682
 21
50.0713
  0
LINE
  8
0
 10
36.8682
 20
50.0713
 11
37.9131
 21
49.9307
  0
LINE
  8
0
 10
37.9131
 20
49.9307
 11
38.8428
 21
49.6797
  0
LINE
  8
0
 10
38.8428
 20
49.6797
 11
39.7236
 21
49.3037
  0
LINE
  8
0
 10
39.7236
 20
49.3037
 11
41.2812
 21
48.3389
  0
LINE
  8
0
 10
41.2812
 20
48.3389
 11
42.752
 21
47.084
  0
LINE
  8
0
 10
42.752
 20
47.084
 11
44.0264
 21
45.6465
  0
LINE
  8
0
 10
44.0264
 20
45.6465
 11
44.998
 21
44.1328
  0
LINE
  8
0
 10
44.998
 20
44.1328
 11
45.9326
 21
41.9805
  0
LINE
  8
0
 10
45.9326
 20
41.9805
 11
46.5459
 21
39.7305
  0
LINE
  8
0
 10
46.5459
 20
39.7305
 11
46.8535
 21
37.2979
  0
LINE
  8
0
 10
46.8535
 20
37.2979
 11
46.874
 21
34.5967
  0
LINE
  8
0
 10
46.874
 20
34.5967
 11
46.8359
 21
33.1875
  0
LINE
  8
0
 10
46.8359
 20
33.1875
 11
46.8965
 21
32.4111
  0
LINE
  8
0
 10
46.8965
 20
32.4111
 11
47.1006
 21
32.0811
  0
LINE
  8
0
 10
47.1006
 20
32.0811
 11
47.4932
 21
32.0127
  0
LINE
  8
0
 10
47.4932
 20
32.0127
 11
48.1973
 21
32.2881
  0
LINE
  8
0
 10
48.1973
 20
32.2881
 11
49.4648
 21
33.0928
  0
LINE
  8
0
 10
49.4648
 20
33.0928
 11
51.252
 21
34.3984
  0
LINE
  8
0
 10
51.252
 20
34.3984
 11
53.5146
 21
36.1738
  0
LINE
  8
0
 10
53.5146
 20
36.1738
 11
53.8594
 21
36.4512
  0
LINE
  8
0
 10
53.8594
 20
36.4512
 11
54.2041
 21
36.7295
  0
LINE
  8
0
 10
54.2041
 20
36.7295
 11
54.8936
 21
37.2842
  0
LINE
  8
0
 10
54.8936
 20
37.2842
 11
54.7725
 21
37.5654
  0
LINE
  8
0
 10
54.7725
 20
37.5654
 11
54.6504
 21
37.8457
  0
LINE
  8
0
 10
54.6504
 20
37.8457
 11
54.5283
 21
38.127
  0
LINE
  8
0
 10
54.5283
 20
38.127
 11
54.4072
 21
38.4082
  0
LINE
  8
0
 10
54.4072
 20
38.4082
 11
53.8555
 21
39.8408
  0
LINE
  8
0
 10
53.8555
 20
39.8408
 11
53.5117
 21
41.2021
  0
LINE
  8
0
 10
53.5117
 20
41.2021
 11
53.334
 21
42.7217
  0
LINE
  8
0
 10
53.334
 20
42.7217
 11
53.2803
 21
44.6279
  0
LINE
  8
0
 10
53.2803
 20
44.6279
 11
53.3232
 21
46.5127
  0
LINE
  8
0
 10
53.3232
 20
46.5127
 11
53.4736
 21
47.9912
  0
LINE
  8
0
 10
53.4736
 20
47.9912
 11
53.7539
 21
49.2012
  0
LINE
  8
0
 10
53.7539
 20
49.2012
 11
54.1865
 21
50.2773
  0
LINE
  8
0
 10
54.1865
 20
50.2773
 11
54.6377
 21
51.0371
  0
LINE
  8
0
 10
54.6377
 20
51.0371
 11
55.3232
 21
51.4346
  0
LINE
  8
0
 10
55.3232
 20
51.4346
 11
56.6729
 21
51.5859
  0
LINE
  8
0
 10
56.6729
 20
51.5859
 11
59.1191
 21
51.6074
  0
LINE
  8
0
 10
59.1191
 20
51.6074
 11
61.6592
 21
51.5605
  0
LINE
  8
0
 10
61.6592
 20
51.5605
 11
63.6787
 21
51.4043
  0
LINE
  8
0
 10
63.6787
 20
51.4043
 11
65.4854
 21
51.1025
  0
LINE
  8
0
 10
65.4854
 20
51.1025
 11
67.3867
 21
50.6182
  0
LINE
  8
0
 10
67.3867
 20
50.6182
 11
68.7324
 21
50.1416
  0
LINE
  8
0
 10
68.7324
 20
50.1416
 11
70.2148
 21
49.4736
  0
LINE
  8
0
 10
70.2148
 20
49.4736
 11
71.6367
 21
48.709
  0
LINE
  8
0
 10
71.6367
 20
48.709
 11
72.8037
 21
47.9453
  0
LINE
  8
0
 10
72.8037
 20
47.9453
 11
73.917
 21
47.0332
  0
LINE
  8
0
 10
73.917
 20
47.0332
 11
75.1045
 21
45.9355
  0
LINE
  8
0
 10
75.1045
 20
45.9355
 11
76.1982
 21
44.8184
  0
LINE
  8
0
 10
76.1982
 20
44.8184
 11
77.0264
 21
43.8457
  0
LINE
  8
0
 10
77.0264
 20
43.8457
 11
78.0293
 21
42.2949
  0
LINE
  8
0
 10
78.0293
 20
42.2949
 11
78.7236
 21
40.749
  0
LINE
  8
0
 10
78.7236
 20
40.749
 11
79.0664
 21
39.333
  0
LINE
  8
0
 10
79.0664
 20
39.333
 11
79.0127
 21
38.1719
  0
LINE
  8
0
 10
79.0127
 20
38.1719
 11
78.2559
 21
36.9238
  0
LINE
  8
0
 10
78.2559
 20
36.9238
 11
76.7109
 21
35.5928
  0
LINE
  8
0
 10
76.7109
 20
35.5928
 11
74.5146
 21
34.2783
  0
LINE
  8
0
 10
74.5146
 20
34.2783
 11
71.8057
 21
33.0771
  0
LINE
  8
0
 10
71.8057
 20
33.0771
 11
71.0225
 21
32.7783
  0
LINE
  8
0
 10
71.0225
 20
32.7783
 11
70.6299
 21
32.6289
  0
LINE
  8
0
 10
70.6299
 20
32.6289
 11
70.2383
 21
32.4805
  0
LINE
  8
0
 10
70.2383
 20
32.4805
 11
69.9658
 21
31.4697
  0
LINE
  8
0
 10
69.9658
 20
31.4697
 11
69.875
 21
31.1338
  0
LINE
  8
0
 10
69.875
 20
31.1338
 11
69.1992
 21
29.0801
  0
LINE
  8
0
 10
69.1992
 20
29.0801
 11
68.166
 21
26.6416
  0
LINE
  8
0
 10
68.166
 20
26.6416
 11
66.7451
 21
23.752
  0
LINE
  8
0
 10
66.7451
 20
23.752
 11
64.9072
 21
20.3467
  0
LINE
  8
0
 10
64.9072
 20
20.3467
 11
62.2324
 21
16.0391
  0
LINE
  8
0
 10
62.2324
 20
16.0391
 11
59.4766
 21
12.6152
  0
LINE
  8
0
 10
59.4766
 20
12.6152
 11
56.5107
 21
9.93555
  0
LINE
  8
0
 10
56.5107
 20
9.93555
 11
53.2041
 21
7.86426
  0
LINE
  8
0
 10
53.2041
 20
7.86426
 11
51.3662
 21
6.9834
  0
LINE
  8
0
 10
51.3662
 20
6.9834
 11
49.5664
 21
6.28125
  0
LINE
  8
0
 10
49.5664
 20
6.28125
 11
47.5908
 21
5.68262
  0
LINE
  8
0
 10
47.5908
 20
5.68262
 11
45.2217
 21
5.11328
  0
LINE
  8
0
 10
45.2217
 20
5.11328
 11
44.2061
 21
4.91406
  0
LINE
  8
0
 10
44.2061
 20
4.91406
 11
43.1377
 21
4.7998
  0
LINE
  8
0
 10
43.1377
 20
4.7998
 11
41.5615
 21
4.7373
  0
LINE
  8
0
 10
41.5615
 20
4.7373
 11
39.0205
 21
4.69727
  0
LINE
  8
0
 10
39.0205
 20
4.69727
 11
37.8809
 21
4.68359
  0
LINE
  8
0
 10
37.8809
 20
4.68359
 11
36.7402
 21
4.66895
  0
LINE
  8
0
 10
36.7402
 20
4.66895
 11
34.46
 21
4.6416
  0
LINE
  8
0
 10
34.46
 20
4.6416
 11
34.0664
 21
4.74414
  0
LINE
  8
0
 10
242
 20
33
 11
223.6
 21
33
  0
LINE
  8
0
 10
223.6
 20
33
 11
223.6
 21
36
  0
LINE
  8
0
 10
223.6
 20
36
 11
168.4
 21
36
  0
LINE
  8
0
 10
168.4
 20
36
 11
168.4
 21
33
  0
LINE
  8
0
 10
168.4
 20
33
 11
150
 21
33
  0
LINE
  8
0
 10
150
 20
33
 11
150
 21
0
  0
LINE
  8
0
 10
150
 20
0
 11
242
 21
0
  0
LINE
  8
0
 10
242
 20
0
 11
242
 21
33
  0
LINE
  8
0
 10
239.895
 20
27.5055
 11
239.691
 21
27.5489
  0
LINE
  8
0
 10
239.691
 20
27.5489
 11
239.5
 21
27.634
  0
LINE
  8
0
 10
239.5
 20
27.634
 11
239.331
 21
27.7569
  0
LINE
  8
0
 10
239.331
 20
27.7569
 11
239.191
 21
27.9122
  0
LINE
  8
0
 10
239.191
 20
27.9122
 11
239.086
 21
28.0933
  0
LINE
  8
0
 10
239.086
 20
28.0933
 11
239.022
 21
28.2921
  0
LINE
  8
0
 10
239.022
 20
28.2921
 11
239
 21
28.5
  0
LINE
  8
0
 10
239
 20
28.5
 11
239.022
 21
28.7079
  0
LINE
  8
0
 10
239.022
 20
28.7079
 11
239.086
 21
28.9067
  0
LINE
  8
0
 10
239.086
 20
28.9067
 11
239.191
 21
29.0878
  0
LINE
  8
0
 10
239.191
 20
29.0878
 11
239.331
 21
29.2431
  0
LINE
  8
0
 10
239.331
 20
29.2431
 11
239.5
 21
29.366
  0
LINE
  8
0
 10
239.5
 20
29.366
 11
239.691
 21
29.451
  0
LINE
  8
0
 10
239.691
 20
29.451
 11
239.895
 21
29.4945
  0
LINE
  8
0
 10
239.895
 20
29.4945
 11
240.105
 21
29.4945
  0
LINE
  8
0
 10
240.105
 20
29.4945
 11
240.309
 21
29.451
  0
LINE
  8
0
 10
240.309
 20
29.451
 11
240.5
 21
29.366
  0
LINE
  8
0
 10
240.5
 20
29.366
 11
240.669
 21
29.2431
  0
LINE
  8
0
 10
240.669
 20
29.2431
 11
240.809
 21
29.0878
  0
LINE
  8
0
 10
240.809
 20
29.0878
 11
240.914
 21
28.9067
  0
LINE
  8
0
 10
240.914
 20
28.9067
 11
240.978
 21
28.7079
  0
LINE
  8
0
 10
240.978
 20
28.7079
 11
241
 21
28.5
  0
LINE
  8
0
 10
241
 20
28.5
 11
240.978
 21
28.2921
  0
LINE
  8
0
 10
240.978
 20
28.2921
 11
240.914
 21
28.0933
  0
LINE
  8
0
 10
240.914
 20
28.0933
 11
240.809
 21
27.9122
  0
LINE
  8
0
 10
240.809
 20
27.9122
 11
240.669
 21
27.7569
  0
LINE
  8
0
 10
240.669
 20
27.7569
 11
240.5
 21
27.634
  0
LINE
  8
0
 10
240.5
 20
27.634
 11
240.309
 21
27.5489
  0
LINE
  8
0
 10
240.309
 20
27.5489
 11
240.105
 21
27.5055
  0
LINE
  8
0
 10
240.105
 20
27.5055
 11
239.895
 21
27.5055
  0
LINE
  8
0
 10
151.895
 20
27.5055
 11
151.691
 21
27.5489
  0
LINE
  8
0
 10
151.691
 20
27.5489
 11
151.5
 21
27.634
  0
LINE
  8
0
 10
151.5
 20
27.634
 11
151.331
 21
27.7569
  0
LINE
  8
0
 10
151.331
 20
27.7569
 11
151.191
 21
27.9122
  0
LINE
  8
0
 10
151.191
 20
27.9122
 11
151.086
 21
28.0933
  0
LINE
  8
0
 10
151.086
 20
28.0933
 11
151.022
 21
28.2921
  0
LINE
  8
0
 10
151.022
 20
28.2921
 11
151
 21
28.5
  0
LINE
  8
0
 10
151
 20
28.5
 11
151.022
 21
28.7079
  0
LINE
  8
0
 10
151.022
 20
28.7079
 11
151.086
 21
28.9067
  0
LINE
  8
0
 10
151.086
 20
28.9067
 11
151.191
 21
29.0878
  0
LINE
  8
0
 10
151.191
 20
29.0878
 11
151.331
 21
29.2431
  0
LINE
  8
0
 10
151.331
 20
29.2431
 11
151.5
 21
29.366
  0
LINE
  8
0
 10
151.5
 20
29.366
 11
151.691
 21
29.451
  0
LINE
  8
0
 10
151.691
 20
29.451
 11
151.895
 21
29.4945
  0
LINE
  8
0
 10
151.895
 20
29.4945
 11
152.105
 21
29.4945
  0
LINE
  8
0
 10
152.105
 20
29.4945
 11
152.309
 21
29.451
  0
LINE
  8
0
 10
152.309
 20
29.451
 11
152.5
 21
29.366
  0
LINE
  8
0
 10
152.5
 20
29.366
 11
152.669
 21
29.2431
  0
LINE
  8
0
 10
152.669
 20
29.2431
 11
152.809
 21
29.0878
  0
LINE
  8
0
 10
152.809
 20
29.0878
 11
152.914
 21
28.9067
  0
LINE
  8
0
 10
152.914
 20
28.9067
 11
152.978
 21
28.7079
  0
LINE
  8
0
 10
152.978
 20
28.7079
 11
153
 21
28.5
  0
LINE
  8
0
 10
153
 20
28.5
 11
152.978
 21
28.2921
  0
LINE
  8
0
 10
152.978
 20
28.2921
 11
152.914
 21
28.0933
  0
LINE
  8
0
 10
152.914
 20
28.0933
 11
152.809
 21
27.9122
  0
LINE
  8
0
 10
152.809
 20
27.9122
 11
152.669
 21
27.7569
  0
LINE
  8
0
 10
152.669
 20
27.7569
 11
152.5
 21
27.634
  0
LINE
  8
0
 10
152.5
 20
27.634
 11
152.309
 21
27.5489
  0
LINE
  8
0
 10
152.309
 20
27.5489
 11
152.105
 21
27.5055
  0
LINE
  8
0
 10
152.105
 20
27.5055
 11
151.895
 21
27.5055
  0
LINE
  8
0
 10
239.895
 20
4.70547
 11
239.691
 21
4.74893
  0
LINE
  8
0
 10
239.691
 20
4.74893
 11
239.5
 21
4.83397
  0
LINE
  8
0
 10
239.5
 20
4.83397
 11
239.331
 21
4.95685
  0
LINE
  8
0
 10
239.331
 20
4.95685
 11
239.191
 21
5.11221
  0
LINE
  8
0
 10
239.191
 20
5.11221
 11
239.086
 21
5.29326
  0
LINE
  8
0
 10
239.086
 20
5.29326
 11
239.022
 21
5.49208
  0
LINE
  8
0
 10
239.022
 20
5.49208
 11
239
 21
5.7
  0
LINE
  8
0
 10
239
 20
5.7
 11
239.022
 21
5.9079
  0
LINE
  8
0
 10
239.022
 20
5.9079
 11
239.086
 21
6.10674
  0
LINE
  8
0
 10
239.086
 20
6.10674
 11
239.191
 21
6.28778
  0
LINE
  8
0
 10
239.191
 20
6.28778
 11
239.331
 21
6.44313
  0
LINE
  8
0
 10
239.331
 20
6.44313
 11
239.5
 21
6.56602
  0
LINE
  8
0
 10
239.5
 20
6.56602
 11
239.691
 21
6.65105
  0
LINE
  8
0
 10
239.691
 20
6.65105
 11
239.895
 21
6.69452
  0
LINE
  8
0
 10
239.895
 20
6.69452
 11
240.105
 21
6.69452
  0
LINE
  8
0
 10
240.105
 20
6.69452
 11
240.309
 21
6.65105
  0
LINE
  8
0
 10
240.309
 20
6.65105
 11
240.5
 21
6.56602
  0
LINE
  8
0
 10
240.5
 20
6.56602
 11
240.669
 21
6.44313
  0
LINE
  8
0
 10
240.669
 20
6.44313
 11
240.809
 21
6.28778
  0
LINE
  8
0
 10
240.809
 20
6.28778
 11
240.914
 21
6.10674
  0
LINE
  8
0
 10
240.914
 20
6.10674
 11
240.978
 21
5.9079
  0
LINE
  8
0
 10
240.978
 20
5.9079
 11
241
 21
5.7
  0
LINE
  8
0
 10
241
 20
5.7
 11
240.978
 21
5.49208
  0
LINE
  8
0
 10
240.978
 20
5.49208
 11
240.914
 21
5.29326
  0
LINE
  8
0
 10
240.914
 20
5.29326
 11
240.809
 21
5.11221
  0
LINE
  8
0
 10
240.809
 20
5.11221
 11
240.669
 21
4.95685
  0
LINE
  8
0
 10
240.669
 20
4.95685
 11
240.5
 21
4.83397
  0
LINE
  8
0
 10
240.5
 20
4.83397
 11
240.309
 21
4.74893
  0
LINE
  8
0
 10
240.309
 20
4.74893
 11
240.105
 21
4.70547
  0
LINE
  8
0
 10
240.105
 20
4.70547
 11
239.895
 21
4.70547
  0
LINE
  8
0
 10
151.895
 20
4.70547
 11
151.691
 21
4.74893
  0
LINE
  8
0
 10
151.691
 20
4.74893
 11
151.5
 21
4.83397
  0
LINE
  8
0
 10
151.5
 20
4.83397
 11
151.331
 21
4.95685
  0
LINE
  8
0
 10
151.331
 20
4.95685
 11
151.191
 21
5.11221
  0
LINE
  8
0
 10
151.191
 20
5.11221
 11
151.086
 21
5.29326
  0
LINE
  8
0
 10
151.086
 20
5.29326
 11
151.022
 21
5.49208
  0
LINE
  8
0
 10
151.022
 20
5.49208
 11
151
 21
5.7
  0
LINE
  8
0
 10
151
 20
5.7
 11
151.022
 21
5.9079
  0
LINE
  8
0
 10
151.022
 20
5.9079
 11
151.086
 21
6.10674
  0
LINE
  8
0
 10
151.086
 20
6.10674
 11
151.191
 21
6.28778
  0
LINE
  8
0
 10
151.191
 20
6.28778
 11
151.331
 21
6.44313
  0
LINE
  8
0
 10
151.331
 20
6.44313
 11
151.5
 21
6.56602
  0
LINE
  8
0
 10
151.5
 20
6.56602
 11
151.691
 21
6.65105
  0
LINE
  8
0
 10
151.691
 20
6.65105
 11
151.895
 21
6.69452
  0
LINE
  8
0
 10
151.895
 20
6.69452
 11
152.105
 21
6.69452
  0
LINE
  8
0
 10
152.105
 20
6.69452
 11
152.309
 21
6.65105
  0
LINE
  8
0
 10
152.309
 20
6.65105
 11
152.5
 21
6.56602
  0
LINE
  8
0
 10
152.5
 20
6.56602
 11
152.669
 21
6.44313
  0
LINE
  8
0
 10
152.669
 20
6.44313
 11
152.809
 21
6.28778
  0
LINE
  8
0
 10
152.809
 20
6.28778
 11
152.914
 21
6.10674
  0
LINE
  8
0
 10
152.914
 20
6.10674
 11
152.978
 21
5.9079
  0
LINE
  8
0
 10
152.978
 20
5.9079
 11
153
 21
5.7
  0
LINE
  8
0
 10
153
 20
5.7
 11
152.978
 21
5.49208
  0
LINE
  8
0
 10
152.978
 20
5.49208
 11
152.914
 21
5.29326
  0
LINE
  8
0
 10
152.914
 20
5.29326
 11
152.809
 21
5.11221
  0
LINE
  8
0
 10
152.809
 20
5.11221
 11
152.669
 21
4.95685
  0
LINE
  8
0
 10
152.669
 20
4.95685
 11
152.5
 21
4.83397
  0
LINE
  8
0
 10
152.5
 20
4.83397
 11
152.309
 21
4.74893
  0
LINE
  8
0
 10
152.309
 20
4.74893
 11
152.105
 21
4.70547
  0
LINE
  8
0
 10
152.105
 20
4.70547
 11
151.895
 21
4.70547
  0
LINE
  8
0
 10
392
 20
25.5
 11
300
 21
25.5
  0
LINE
  8
0
 10
300
 20
25.5
 11
300
 21
0
  0
LINE
  8
0
 10
300
 20
0
 11
392
 21
0
  0
LINE
  8
0
 10
392
 20
0
 11
392
 21
25.5
  0
ENDSEC
  0
SECTION
  2
OBJECTS
  0
DICTIONARY
  0
ENDSEC
  0
EOF
